<svg id="Layer_1" data-name="Layer 1" xmlns="http://www.w3.org/2000/svg" viewBox="0 0 24 24"><defs><style>.cls-1{fill:none;stroke:#000;stroke-miterlimit:10;stroke-width:0.5px;}</style></defs><rect class="cls-1" x="6.23" y="2.28" width="11.42" height="9.37"/><rect class="cls-1" x="1.49" y="11.66" width="20.93" height="10.06"/><line class="cls-1" x1="11.95" y1="11.66" x2="11.95" y2="21.72"/><path d="M11.93,5.23h0L11,5.72l-.14-.54L12,4.56h.61V9.83h-.69Z"/><path d="M5.15,19.4V19l.56-.54c1.35-1.28,2-2,2-2.76a.94.94,0,0,0-1-1,1.8,1.8,0,0,0-1.12.45l-.23-.5A2.33,2.33,0,0,1,6.77,14a1.49,1.49,0,0,1,1.62,1.53c0,1-.71,1.76-1.82,2.83l-.42.39v0H8.52v.59Z"/><path d="M15.94,18.59a2.36,2.36,0,0,0,1.16.33c.92,0,1.2-.58,1.2-1,0-.73-.68-1-1.37-1h-.39v-.53h.39c.52,0,1.18-.27,1.18-.9,0-.42-.27-.79-.92-.79a2,2,0,0,0-1.06.35L16,14.46a2.5,2.5,0,0,1,1.37-.4c1,0,1.51.61,1.51,1.25a1.3,1.3,0,0,1-1,1.24v0A1.36,1.36,0,0,1,19,17.92c0,.84-.65,1.58-1.92,1.58a2.68,2.68,0,0,1-1.37-.36Z"/></svg>