<svg id="Layer_1" data-name="Layer 1" xmlns="http://www.w3.org/2000/svg" viewBox="0 0 24 24"><defs><style>.cls-1,.cls-2{fill:none;stroke:#000;stroke-width:0.5px;}.cls-1{stroke-miterlimit:10;}.cls-2{stroke-linecap:round;stroke-linejoin:round;}</style></defs><path class="cls-1" d="M7.51,15.88s-6.34,1.91-6.34,4.81v2.36H12"/><path class="cls-1" d="M16.49,15.88s6.34,1.91,6.34,4.81v2.36H12"/><path class="cls-1" d="M12,14.09c-3,0-5.48-3-5.84-6.57C5.67,2.35,9,.93,12,1"/><path class="cls-1" d="M12,14.09c3,0,5.48-3,5.84-6.57C18.37,2.35,15,.93,12,1"/><path class="cls-2" d="M6.21,7.78s2-2.56,3.83-2.56h2.25A2.75,2.75,0,0,0,15,3.11c-1,3.28,2.92,4.13,2.92,4.13"/></svg>